<?xml version="1.0" standalone="no"?><!DOCTYPE svg PUBLIC "-//W3C//DTD SVG 1.1//EN" "http://www.w3.org/Graphics/SVG/1.1/DTD/svg11.dtd"><svg t="1583456979290" class="icon" viewBox="0 0 1024 1024" version="1.1" xmlns="http://www.w3.org/2000/svg" p-id="11515" xmlns:xlink="http://www.w3.org/1999/xlink" width="200" height="200"><defs><style type="text/css"></style></defs><path d="M820.309333 294.442667L597.312 533.312 597.333333 533.333333h-0.042666L480 659.029333V917.333333H640v64H256v-64h160V659.029333L298.666667 533.333333v-0.021333L75.669333 294.442667h744.618667zM509.76 533.333333h-123.562667L448 599.530667 509.76 533.333333z m163.264-174.890666H222.976L326.464 469.333333h243.029333l103.530667-110.890666zM746.666667 53.333333a202.666667 202.666667 0 1 1-41.088 401.173334L763.733333 393.6a138.688 138.688 0 1 0-154.069333-116.266667h-64.533333A202.666667 202.666667 0 0 1 746.666667 53.333333z" p-id="11516"></path></svg>